<?xml version="1.0" standalone="no"?>
<!DOCTYPE svg PUBLIC "-//W3C//DTD SVG 20010904//EN"
 "http://www.w3.org/TR/2001/REC-SVG-20010904/DTD/svg10.dtd">
<svg version="1.0" xmlns="http://www.w3.org/2000/svg"
 width="900.000000pt" height="900.000000pt" viewBox="0 0 900.000000 900.000000"
 preserveAspectRatio="xMidYMid meet">

<g transform="translate(0.000000,900.000000) scale(0.100000,-0.100000)"
fill="#000000" stroke="none">
<path d="M0 4505 l0 -4495 4495 0 4495 0 0 4495 0 4495 -4495 0 -4495 0 0
-4495z m3796 2853 c30 -34 78 -133 108 -222 38 -114 37 -249 -3 -367 -44 -132
-114 -231 -218 -310 -32 -24 -59 -44 -61 -45 -4 -2 26 -71 89 -202 33 -68 59
-125 59 -127 0 -2 27 -61 61 -132 34 -70 74 -155 89 -188 15 -33 49 -105 75
-160 26 -55 54 -115 62 -134 12 -29 17 -32 41 -27 15 4 72 9 127 12 198 11
345 -51 478 -205 44 -51 107 -163 107 -190 0 -8 -86 -11 -296 -11 -284 0 -298
-1 -331 -21 -48 -30 -67 -72 -68 -149 0 -82 22 -129 74 -158 37 -21 50 -22
330 -22 l291 0 -6 -27 c-24 -101 -134 -233 -252 -302 -186 -109 -408 -110
-593 -1 -115 68 -194 160 -251 292 -26 61 -31 90 -36 178 -6 125 5 184 52 283
46 97 131 192 234 262 1 1 -22 53 -52 116 -29 63 -66 141 -81 174 -15 33 -45
98 -67 145 -22 47 -50 108 -63 135 -13 28 -48 102 -78 165 -29 63 -66 143 -82
178 -15 34 -31 62 -35 62 -4 0 -27 -7 -51 -15 -104 -37 -252 -29 -382 21 -145
56 -267 167 -334 304 -62 130 -73 156 -73 178 0 23 44 62 70 62 21 0 70 -37
70 -53 0 -7 22 -58 50 -113 39 -80 61 -112 107 -154 197 -181 497 -173 690 16
78 76 128 175 143 282 15 108 0 185 -60 310 -28 57 -50 113 -50 125 0 54 78
78 116 35z m-414 -98 c128 -39 208 -144 216 -281 6 -108 -15 -166 -87 -240
-47 -48 -67 -60 -125 -78 -57 -18 -78 -20 -126 -12 -206 33 -313 224 -244 433
23 72 109 153 188 177 78 25 100 25 178 1z m3649 -1779 c25 -31 24 -59 -3 -88
-20 -22 -29 -23 -141 -23 -74 0 -141 -6 -178 -15 -132 -35 -253 -139 -318
-275 -35 -74 -35 -77 -35 -205 0 -129 0 -130 37 -209 43 -91 143 -198 217
-233 98 -45 136 -53 270 -53 117 0 132 -2 150 -20 11 -11 20 -33 20 -50 0 -46
-34 -63 -143 -67 -130 -5 -254 19 -347 65 -94 47 -211 160 -262 252 -33 60
-77 187 -81 231 -1 19 -23 19 -964 19 -950 0 -963 0 -983 20 -26 26 -26 64 0
90 20 20 33 20 983 20 941 0 963 0 964 19 1 11 11 52 23 93 55 185 187 335
358 408 93 39 152 49 295 47 112 -2 120 -3 138 -26z m-94 -312 c101 -43 162
-114 189 -221 14 -53 15 -73 4 -131 -44 -246 -335 -340 -510 -164 -100 100
-124 242 -60 367 72 141 240 208 377 149z m-2653 -1433 c18 -7 42 -26 54 -41
l22 -28 0 -799 0 -800 -34 -34 c-47 -47 -95 -47 -142 0 l-34 34 0 796 c0 555
3 802 11 819 6 13 27 34 47 45 44 26 36 25 76 8z m1563 -41 c23 -26 23 -26 23
-376 l0 -349 480 0 479 0 1 342 c0 247 4 348 13 367 6 14 29 34 51 45 36 17
40 18 72 3 68 -33 64 20 64 -856 0 -695 -1 -797 -15 -817 -34 -53 -111 -63
-154 -20 l-26 26 -3 360 -3 360 -479 0 -480 0 0 -354 c0 -342 -1 -354 -21
-380 -40 -50 -113 -50 -160 0 l-24 26 0 800 0 800 38 33 c34 29 41 32 79 25
27 -5 51 -18 65 -35z m-3622 8 c437 -126 706 -600 592 -1041 -83 -317 -309
-546 -621 -627 -92 -24 -113 -26 -320 -25 -296 2 -341 8 -378 49 l-28 31 0
785 0 784 23 26 c12 15 38 30 57 35 19 5 163 7 320 6 252 -2 293 -5 355 -23z
m5480 3 c48 -20 78 -70 83 -136 6 -75 -9 -104 -117 -235 l-91 -110 97 -5 c92
-5 98 -6 112 -31 13 -24 13 -29 -2 -53 l-17 -26 -162 0 c-136 0 -164 3 -180
17 -30 27 -22 63 26 123 24 30 81 100 125 155 45 55 81 107 82 115 0 8 2 23 4
32 2 9 -4 26 -12 38 -12 17 -23 20 -56 18 -33 -2 -44 -8 -57 -32 -8 -16 -28
-39 -43 -50 l-27 -20 -27 21 c-16 11 -29 30 -31 42 -8 55 56 134 123 150 47
12 125 5 170 -13z"/>
<path d="M3215 7141 c-22 -10 -54 -35 -70 -57 -25 -33 -30 -50 -33 -111 -4
-60 -1 -78 19 -112 80 -144 286 -129 345 24 63 165 -103 328 -261 256z"/>
<path d="M6745 5056 c-86 -38 -131 -166 -91 -260 22 -53 81 -103 135 -115 81
-17 146 7 198 75 38 50 45 151 15 210 -24 47 -57 79 -95 93 -39 15 -126 13
-162 -3z"/>
<path d="M1680 2876 l0 -654 165 -7 c198 -9 263 -3 364 34 218 80 353 235 419
481 13 50 19 155 12 215 -32 272 -228 500 -486 565 -65 16 -113 20 -276 20
l-198 0 0 -654z"/>
</g>
</svg>
